# xmcd
#
# Track frame offsets: 
#        150
#        28313
#        42179
#        59406
#        72866
#        96331
#        117380
#        133641
#        150225
#        168056
#        184142
#
# Disc length: 2709 seconds
#
# Revision: 0
# Processed by: cddbd v1.5.2PL0 Copyright (c) Steve Scherf et al.
# Submitted via: ExactAudioCopy v1.0b3
#
DISCID=910a930b
DTITLE=Hundred Strong - Stylin' Free
DYEAR=2010
DGENRE=Soul
TTITLE0=Stylin' Free feat. Amp Fiddler
TTITLE1=How Good It Is feat. J. Todd
TTITLE2=Make You See The Light feat. Holly Backler
TTITLE3=Odeon pt. 2 feat. Serocee
TTITLE4=Time feat. Amp Fiddler
TTITLE5=Find A Way feat. J. Todd
TTITLE6=One Thing feat. Holly Backler
TTITLE7=Talkin' Not Listenin' feat. Serocee
TTITLE8=Mood Swing feat. Amp Fiddler
TTITLE9=Gravestones feat. J. Malik
TTITLE10=You Make Me Fe feat. P. Simpson
EXTD=
EXTT0=
EXTT1=
EXTT2=
EXTT3=
EXTT4=
EXTT5=
EXTT6=
EXTT7=
EXTT8=
EXTT9=
EXTT10=
PLAYORDER=
